<mxfile host="app.diagrams.net" agent="Mozilla/5.0 (Windows NT 10.0; Win64; x64) AppleWebKit/537.36 (KHTML, like Gecko) Chrome/137.0.0.0 Safari/537.36" version="27.1.6">
  <diagram id="R2lEEEUBdFMjLlhIrx00" name="Page-1">
    <mxGraphModel dx="1246" dy="687" grid="1" gridSize="10" guides="1" tooltips="1" connect="1" arrows="1" fold="1" page="1" pageScale="1" pageWidth="850" pageHeight="1100" math="0" shadow="0" extFonts="Permanent Marker^https://fonts.googleapis.com/css?family=Permanent+Marker">
      <root>
        <mxCell id="0" />
        <mxCell id="1" parent="0" />
        <mxCell id="cLD9-flNQuJHAPPy_8HS-1" style="rounded=0;orthogonalLoop=1;jettySize=auto;html=1;exitX=0;exitY=0.5;exitDx=0;exitDy=0;entryX=0.5;entryY=1;entryDx=0;entryDy=0;endArrow=none;startFill=0;" edge="1" parent="1" source="cLD9-flNQuJHAPPy_8HS-5" target="cLD9-flNQuJHAPPy_8HS-12">
          <mxGeometry relative="1" as="geometry" />
        </mxCell>
        <mxCell id="cLD9-flNQuJHAPPy_8HS-2" style="rounded=0;orthogonalLoop=1;jettySize=auto;html=1;exitX=1;exitY=0.5;exitDx=0;exitDy=0;entryX=0;entryY=0.5;entryDx=0;entryDy=0;endArrow=none;startFill=0;" edge="1" parent="1" source="cLD9-flNQuJHAPPy_8HS-5" target="cLD9-flNQuJHAPPy_8HS-33">
          <mxGeometry relative="1" as="geometry" />
        </mxCell>
        <mxCell id="cLD9-flNQuJHAPPy_8HS-3" style="rounded=0;orthogonalLoop=1;jettySize=auto;html=1;exitX=0.5;exitY=1;exitDx=0;exitDy=0;entryX=0.5;entryY=0;entryDx=0;entryDy=0;endArrow=none;startFill=0;" edge="1" parent="1" source="cLD9-flNQuJHAPPy_8HS-5" target="cLD9-flNQuJHAPPy_8HS-49">
          <mxGeometry relative="1" as="geometry">
            <mxPoint x="1070" y="555" as="targetPoint" />
          </mxGeometry>
        </mxCell>
        <mxCell id="cLD9-flNQuJHAPPy_8HS-4" style="edgeStyle=orthogonalEdgeStyle;rounded=0;orthogonalLoop=1;jettySize=auto;html=1;exitX=0.5;exitY=0;exitDx=0;exitDy=0;endArrow=none;startFill=0;" edge="1" parent="1" source="cLD9-flNQuJHAPPy_8HS-5" target="cLD9-flNQuJHAPPy_8HS-121">
          <mxGeometry relative="1" as="geometry" />
        </mxCell>
        <mxCell id="cLD9-flNQuJHAPPy_8HS-5" value="User" style="rounded=0;whiteSpace=wrap;html=1;" vertex="1" parent="1">
          <mxGeometry x="900" y="475" width="100" height="40" as="geometry" />
        </mxCell>
        <mxCell id="cLD9-flNQuJHAPPy_8HS-6" value="phone_number" style="ellipse;whiteSpace=wrap;html=1;" vertex="1" parent="1">
          <mxGeometry x="1015" y="405" width="100" height="30" as="geometry" />
        </mxCell>
        <mxCell id="cLD9-flNQuJHAPPy_8HS-7" value="username" style="ellipse;whiteSpace=wrap;html=1;" vertex="1" parent="1">
          <mxGeometry x="820" y="375" width="100" height="30" as="geometry" />
        </mxCell>
        <mxCell id="cLD9-flNQuJHAPPy_8HS-8" value="password" style="ellipse;whiteSpace=wrap;html=1;" vertex="1" parent="1">
          <mxGeometry x="990" y="375" width="100" height="30" as="geometry" />
        </mxCell>
        <mxCell id="cLD9-flNQuJHAPPy_8HS-9" value="created_at" style="ellipse;whiteSpace=wrap;html=1;" vertex="1" parent="1">
          <mxGeometry x="769.5" y="515" width="100" height="30" as="geometry" />
        </mxCell>
        <mxCell id="cLD9-flNQuJHAPPy_8HS-10" value="is_active" style="ellipse;whiteSpace=wrap;html=1;" vertex="1" parent="1">
          <mxGeometry x="1030" y="435" width="100" height="30" as="geometry" />
        </mxCell>
        <mxCell id="cLD9-flNQuJHAPPy_8HS-11" value="updated_at" style="ellipse;whiteSpace=wrap;html=1;" vertex="1" parent="1">
          <mxGeometry x="779.5" y="550" width="100" height="30" as="geometry" />
        </mxCell>
        <mxCell id="cLD9-flNQuJHAPPy_8HS-12" value="user_rating" style="ellipse;whiteSpace=wrap;html=1;" vertex="1" parent="1">
          <mxGeometry x="774.5" y="435" width="100" height="30" as="geometry" />
        </mxCell>
        <mxCell id="cLD9-flNQuJHAPPy_8HS-13" style="edgeStyle=orthogonalEdgeStyle;rounded=0;orthogonalLoop=1;jettySize=auto;html=1;exitX=1;exitY=0.5;exitDx=0;exitDy=0;entryX=0;entryY=0.5;entryDx=0;entryDy=0;endArrow=none;startFill=0;" edge="1" parent="1" source="cLD9-flNQuJHAPPy_8HS-14" target="cLD9-flNQuJHAPPy_8HS-5">
          <mxGeometry relative="1" as="geometry" />
        </mxCell>
        <mxCell id="cLD9-flNQuJHAPPy_8HS-14" value="memiliki" style="rhombus;whiteSpace=wrap;html=1;" vertex="1" parent="1">
          <mxGeometry x="730" y="475" width="110" height="40" as="geometry" />
        </mxCell>
        <mxCell id="cLD9-flNQuJHAPPy_8HS-15" style="rounded=0;orthogonalLoop=1;jettySize=auto;html=1;exitX=1;exitY=0.5;exitDx=0;exitDy=0;entryX=0;entryY=0.5;entryDx=0;entryDy=0;endArrow=none;startFill=0;" edge="1" parent="1" source="cLD9-flNQuJHAPPy_8HS-21" target="cLD9-flNQuJHAPPy_8HS-14">
          <mxGeometry relative="1" as="geometry" />
        </mxCell>
        <mxCell id="cLD9-flNQuJHAPPy_8HS-16" style="rounded=0;orthogonalLoop=1;jettySize=auto;html=1;exitX=0.75;exitY=0;exitDx=0;exitDy=0;entryX=0.5;entryY=1;entryDx=0;entryDy=0;endArrow=none;startFill=0;" edge="1" parent="1" source="cLD9-flNQuJHAPPy_8HS-21" target="cLD9-flNQuJHAPPy_8HS-86">
          <mxGeometry relative="1" as="geometry" />
        </mxCell>
        <mxCell id="cLD9-flNQuJHAPPy_8HS-17" style="rounded=0;orthogonalLoop=1;jettySize=auto;html=1;exitX=0.25;exitY=0;exitDx=0;exitDy=0;entryX=0.5;entryY=1;entryDx=0;entryDy=0;endArrow=none;startFill=0;" edge="1" parent="1" source="cLD9-flNQuJHAPPy_8HS-21" target="cLD9-flNQuJHAPPy_8HS-83">
          <mxGeometry relative="1" as="geometry" />
        </mxCell>
        <mxCell id="cLD9-flNQuJHAPPy_8HS-18" style="rounded=0;orthogonalLoop=1;jettySize=auto;html=1;exitX=0;exitY=0;exitDx=0;exitDy=0;entryX=1;entryY=0.5;entryDx=0;entryDy=0;endArrow=none;startFill=0;" edge="1" parent="1" source="cLD9-flNQuJHAPPy_8HS-21" target="cLD9-flNQuJHAPPy_8HS-88">
          <mxGeometry relative="1" as="geometry" />
        </mxCell>
        <mxCell id="cLD9-flNQuJHAPPy_8HS-19" style="rounded=0;orthogonalLoop=1;jettySize=auto;html=1;exitX=0;exitY=0.5;exitDx=0;exitDy=0;entryX=1;entryY=0.5;entryDx=0;entryDy=0;endArrow=none;startFill=0;" edge="1" parent="1" source="cLD9-flNQuJHAPPy_8HS-21" target="cLD9-flNQuJHAPPy_8HS-82">
          <mxGeometry relative="1" as="geometry" />
        </mxCell>
        <mxCell id="cLD9-flNQuJHAPPy_8HS-20" style="rounded=0;orthogonalLoop=1;jettySize=auto;html=1;exitX=0;exitY=1;exitDx=0;exitDy=0;entryX=1;entryY=0;entryDx=0;entryDy=0;endArrow=none;startFill=0;" edge="1" parent="1" source="cLD9-flNQuJHAPPy_8HS-21" target="cLD9-flNQuJHAPPy_8HS-87">
          <mxGeometry relative="1" as="geometry" />
        </mxCell>
        <mxCell id="cLD9-flNQuJHAPPy_8HS-21" value="Token" style="rounded=0;whiteSpace=wrap;html=1;" vertex="1" parent="1">
          <mxGeometry x="580" y="460" width="100" height="40" as="geometry" />
        </mxCell>
        <mxCell id="cLD9-flNQuJHAPPy_8HS-22" style="rounded=0;orthogonalLoop=1;jettySize=auto;html=1;exitX=0.75;exitY=0;exitDx=0;exitDy=0;entryX=0.5;entryY=1;entryDx=0;entryDy=0;endArrow=none;startFill=0;" edge="1" parent="1" source="cLD9-flNQuJHAPPy_8HS-25" target="cLD9-flNQuJHAPPy_8HS-54">
          <mxGeometry relative="1" as="geometry" />
        </mxCell>
        <mxCell id="cLD9-flNQuJHAPPy_8HS-23" style="rounded=0;orthogonalLoop=1;jettySize=auto;html=1;exitX=1;exitY=0;exitDx=0;exitDy=0;entryX=0;entryY=1;entryDx=0;entryDy=0;endArrow=none;startFill=0;" edge="1" parent="1" source="cLD9-flNQuJHAPPy_8HS-25" target="cLD9-flNQuJHAPPy_8HS-53">
          <mxGeometry relative="1" as="geometry" />
        </mxCell>
        <mxCell id="cLD9-flNQuJHAPPy_8HS-24" style="rounded=0;orthogonalLoop=1;jettySize=auto;html=1;exitX=1;exitY=0.5;exitDx=0;exitDy=0;entryX=0;entryY=0.5;entryDx=0;entryDy=0;endArrow=none;startFill=0;" edge="1" parent="1" source="cLD9-flNQuJHAPPy_8HS-25" target="cLD9-flNQuJHAPPy_8HS-55">
          <mxGeometry relative="1" as="geometry" />
        </mxCell>
        <mxCell id="cLD9-flNQuJHAPPy_8HS-25" value="file" style="rounded=0;whiteSpace=wrap;html=1;" vertex="1" parent="1">
          <mxGeometry x="1160" y="475" width="100" height="40" as="geometry" />
        </mxCell>
        <mxCell id="cLD9-flNQuJHAPPy_8HS-26" style="rounded=0;orthogonalLoop=1;jettySize=auto;html=1;exitX=0.25;exitY=0;exitDx=0;exitDy=0;entryX=0.58;entryY=1.033;entryDx=0;entryDy=0;endArrow=none;startFill=0;entryPerimeter=0;" edge="1" parent="1" source="cLD9-flNQuJHAPPy_8HS-5" target="cLD9-flNQuJHAPPy_8HS-7">
          <mxGeometry relative="1" as="geometry">
            <mxPoint x="955" y="499" as="sourcePoint" />
            <mxPoint x="930" y="445" as="targetPoint" />
          </mxGeometry>
        </mxCell>
        <mxCell id="cLD9-flNQuJHAPPy_8HS-27" style="rounded=0;orthogonalLoop=1;jettySize=auto;html=1;exitX=1;exitY=0;exitDx=0;exitDy=0;entryX=0;entryY=1;entryDx=0;entryDy=0;endArrow=none;startFill=0;" edge="1" parent="1" source="cLD9-flNQuJHAPPy_8HS-9" target="cLD9-flNQuJHAPPy_8HS-5">
          <mxGeometry relative="1" as="geometry">
            <mxPoint x="977" y="674" as="sourcePoint" />
            <mxPoint x="970" y="595" as="targetPoint" />
          </mxGeometry>
        </mxCell>
        <mxCell id="cLD9-flNQuJHAPPy_8HS-28" style="rounded=0;orthogonalLoop=1;jettySize=auto;html=1;exitX=0.71;exitY=-0.067;exitDx=0;exitDy=0;endArrow=none;startFill=0;entryX=0.25;entryY=1;entryDx=0;entryDy=0;exitPerimeter=0;" edge="1" parent="1" source="cLD9-flNQuJHAPPy_8HS-11" target="cLD9-flNQuJHAPPy_8HS-5">
          <mxGeometry relative="1" as="geometry">
            <mxPoint x="1027" y="664" as="sourcePoint" />
            <mxPoint x="1020" y="585" as="targetPoint" />
          </mxGeometry>
        </mxCell>
        <mxCell id="cLD9-flNQuJHAPPy_8HS-29" style="rounded=0;orthogonalLoop=1;jettySize=auto;html=1;exitX=1;exitY=0;exitDx=0;exitDy=0;entryX=0;entryY=0.5;entryDx=0;entryDy=0;endArrow=none;startFill=0;" edge="1" parent="1" source="cLD9-flNQuJHAPPy_8HS-5" target="cLD9-flNQuJHAPPy_8HS-10">
          <mxGeometry relative="1" as="geometry">
            <mxPoint x="957" y="514" as="sourcePoint" />
            <mxPoint x="950" y="435" as="targetPoint" />
          </mxGeometry>
        </mxCell>
        <mxCell id="cLD9-flNQuJHAPPy_8HS-30" style="rounded=0;orthogonalLoop=1;jettySize=auto;html=1;exitX=0.75;exitY=0;exitDx=0;exitDy=0;entryX=0.06;entryY=0.767;entryDx=0;entryDy=0;endArrow=none;startFill=0;entryPerimeter=0;" edge="1" parent="1" source="cLD9-flNQuJHAPPy_8HS-5" target="cLD9-flNQuJHAPPy_8HS-6">
          <mxGeometry relative="1" as="geometry">
            <mxPoint x="967" y="524" as="sourcePoint" />
            <mxPoint x="960" y="445" as="targetPoint" />
          </mxGeometry>
        </mxCell>
        <mxCell id="cLD9-flNQuJHAPPy_8HS-31" style="rounded=0;orthogonalLoop=1;jettySize=auto;html=1;exitX=0.5;exitY=0;exitDx=0;exitDy=0;entryX=0;entryY=1;entryDx=0;entryDy=0;endArrow=none;startFill=0;" edge="1" parent="1" source="cLD9-flNQuJHAPPy_8HS-5" target="cLD9-flNQuJHAPPy_8HS-8">
          <mxGeometry relative="1" as="geometry">
            <mxPoint x="977" y="475" as="sourcePoint" />
            <mxPoint x="970" y="396" as="targetPoint" />
          </mxGeometry>
        </mxCell>
        <mxCell id="cLD9-flNQuJHAPPy_8HS-32" style="edgeStyle=orthogonalEdgeStyle;rounded=0;orthogonalLoop=1;jettySize=auto;html=1;exitX=1;exitY=0.5;exitDx=0;exitDy=0;entryX=0;entryY=0.5;entryDx=0;entryDy=0;endArrow=none;startFill=0;" edge="1" parent="1" source="cLD9-flNQuJHAPPy_8HS-33" target="cLD9-flNQuJHAPPy_8HS-25">
          <mxGeometry relative="1" as="geometry" />
        </mxCell>
        <mxCell id="cLD9-flNQuJHAPPy_8HS-33" value="memiliki" style="rhombus;whiteSpace=wrap;html=1;" vertex="1" parent="1">
          <mxGeometry x="1035" y="475" width="110" height="40" as="geometry" />
        </mxCell>
        <mxCell id="cLD9-flNQuJHAPPy_8HS-34" style="edgeStyle=orthogonalEdgeStyle;rounded=0;orthogonalLoop=1;jettySize=auto;html=1;exitX=1;exitY=0.5;exitDx=0;exitDy=0;entryX=0;entryY=0.5;entryDx=0;entryDy=0;endArrow=none;startFill=0;" edge="1" parent="1" source="cLD9-flNQuJHAPPy_8HS-36" target="cLD9-flNQuJHAPPy_8HS-47">
          <mxGeometry relative="1" as="geometry">
            <mxPoint x="779.5" y="795" as="targetPoint" />
          </mxGeometry>
        </mxCell>
        <mxCell id="cLD9-flNQuJHAPPy_8HS-35" style="edgeStyle=orthogonalEdgeStyle;rounded=0;orthogonalLoop=1;jettySize=auto;html=1;exitX=0.5;exitY=1;exitDx=0;exitDy=0;entryX=0.5;entryY=0;entryDx=0;entryDy=0;endArrow=none;startFill=0;" edge="1" parent="1" source="cLD9-flNQuJHAPPy_8HS-36" target="cLD9-flNQuJHAPPy_8HS-108">
          <mxGeometry relative="1" as="geometry" />
        </mxCell>
        <mxCell id="cLD9-flNQuJHAPPy_8HS-36" value="Driver" style="rounded=0;whiteSpace=wrap;html=1;" vertex="1" parent="1">
          <mxGeometry x="639.5" y="820" width="100" height="40" as="geometry" />
        </mxCell>
        <mxCell id="cLD9-flNQuJHAPPy_8HS-37" style="rounded=0;orthogonalLoop=1;jettySize=auto;html=1;exitX=0.75;exitY=0;exitDx=0;exitDy=0;entryX=0.26;entryY=1;entryDx=0;entryDy=0;endArrow=none;startFill=0;entryPerimeter=0;" edge="1" parent="1" source="cLD9-flNQuJHAPPy_8HS-45" target="cLD9-flNQuJHAPPy_8HS-60">
          <mxGeometry relative="1" as="geometry" />
        </mxCell>
        <mxCell id="cLD9-flNQuJHAPPy_8HS-38" style="rounded=0;orthogonalLoop=1;jettySize=auto;html=1;exitX=1;exitY=0.25;exitDx=0;exitDy=0;entryX=0;entryY=0.5;entryDx=0;entryDy=0;endArrow=none;startFill=0;" edge="1" parent="1" source="cLD9-flNQuJHAPPy_8HS-45" target="cLD9-flNQuJHAPPy_8HS-59">
          <mxGeometry relative="1" as="geometry" />
        </mxCell>
        <mxCell id="cLD9-flNQuJHAPPy_8HS-39" style="edgeStyle=orthogonalEdgeStyle;rounded=0;orthogonalLoop=1;jettySize=auto;html=1;exitX=1;exitY=0.5;exitDx=0;exitDy=0;entryX=0;entryY=0.5;entryDx=0;entryDy=0;endArrow=none;startFill=0;" edge="1" parent="1" source="cLD9-flNQuJHAPPy_8HS-45" target="cLD9-flNQuJHAPPy_8HS-80">
          <mxGeometry relative="1" as="geometry" />
        </mxCell>
        <mxCell id="cLD9-flNQuJHAPPy_8HS-40" style="rounded=0;orthogonalLoop=1;jettySize=auto;html=1;entryX=0;entryY=0;entryDx=0;entryDy=0;endArrow=none;startFill=0;exitX=0.8;exitY=0.75;exitDx=0;exitDy=0;exitPerimeter=0;" edge="1" parent="1" source="cLD9-flNQuJHAPPy_8HS-45" target="cLD9-flNQuJHAPPy_8HS-58">
          <mxGeometry relative="1" as="geometry">
            <mxPoint x="1000" y="715" as="sourcePoint" />
          </mxGeometry>
        </mxCell>
        <mxCell id="cLD9-flNQuJHAPPy_8HS-41" style="rounded=0;orthogonalLoop=1;jettySize=auto;html=1;exitX=0.5;exitY=1;exitDx=0;exitDy=0;entryX=0;entryY=0;entryDx=0;entryDy=0;endArrow=none;startFill=0;" edge="1" parent="1" source="cLD9-flNQuJHAPPy_8HS-45" target="cLD9-flNQuJHAPPy_8HS-57">
          <mxGeometry relative="1" as="geometry" />
        </mxCell>
        <mxCell id="cLD9-flNQuJHAPPy_8HS-42" style="rounded=0;orthogonalLoop=1;jettySize=auto;html=1;exitX=1;exitY=0;exitDx=0;exitDy=0;entryX=0;entryY=0.5;entryDx=0;entryDy=0;endArrow=none;startFill=0;" edge="1" parent="1" source="cLD9-flNQuJHAPPy_8HS-45" target="cLD9-flNQuJHAPPy_8HS-119">
          <mxGeometry relative="1" as="geometry" />
        </mxCell>
        <mxCell id="cLD9-flNQuJHAPPy_8HS-43" style="rounded=0;orthogonalLoop=1;jettySize=auto;html=1;exitX=1;exitY=1;exitDx=0;exitDy=0;endArrow=none;startFill=0;entryX=0;entryY=0.5;entryDx=0;entryDy=0;" edge="1" parent="1" source="cLD9-flNQuJHAPPy_8HS-45" target="cLD9-flNQuJHAPPy_8HS-128">
          <mxGeometry relative="1" as="geometry">
            <mxPoint x="1080" y="735" as="targetPoint" />
          </mxGeometry>
        </mxCell>
        <mxCell id="cLD9-flNQuJHAPPy_8HS-44" value="" style="edgeStyle=orthogonalEdgeStyle;rounded=0;orthogonalLoop=1;jettySize=auto;html=1;endArrow=none;startFill=0;" edge="1" parent="1" source="cLD9-flNQuJHAPPy_8HS-45" target="cLD9-flNQuJHAPPy_8HS-169">
          <mxGeometry relative="1" as="geometry" />
        </mxCell>
        <mxCell id="cLD9-flNQuJHAPPy_8HS-45" value="Delivery_Order" style="rounded=0;whiteSpace=wrap;html=1;" vertex="1" parent="1">
          <mxGeometry x="900" y="635" width="100" height="40" as="geometry" />
        </mxCell>
        <mxCell id="cLD9-flNQuJHAPPy_8HS-46" style="edgeStyle=orthogonalEdgeStyle;rounded=0;orthogonalLoop=1;jettySize=auto;html=1;exitX=1;exitY=0.5;exitDx=0;exitDy=0;entryX=0.5;entryY=1;entryDx=0;entryDy=0;endArrow=none;startFill=0;" edge="1" parent="1" source="cLD9-flNQuJHAPPy_8HS-47" target="cLD9-flNQuJHAPPy_8HS-45">
          <mxGeometry relative="1" as="geometry">
            <mxPoint x="949.5" y="715" as="targetPoint" />
          </mxGeometry>
        </mxCell>
        <mxCell id="cLD9-flNQuJHAPPy_8HS-47" value="mengantarkan" style="rhombus;whiteSpace=wrap;html=1;" vertex="1" parent="1">
          <mxGeometry x="769.5" y="820" width="110" height="40" as="geometry" />
        </mxCell>
        <mxCell id="cLD9-flNQuJHAPPy_8HS-48" style="rounded=0;orthogonalLoop=1;jettySize=auto;html=1;exitX=0.5;exitY=1;exitDx=0;exitDy=0;entryX=0.5;entryY=0;entryDx=0;entryDy=0;endArrow=none;startFill=0;" edge="1" parent="1" source="cLD9-flNQuJHAPPy_8HS-49" target="cLD9-flNQuJHAPPy_8HS-45">
          <mxGeometry relative="1" as="geometry" />
        </mxCell>
        <mxCell id="cLD9-flNQuJHAPPy_8HS-49" value="memesan" style="rhombus;whiteSpace=wrap;html=1;" vertex="1" parent="1">
          <mxGeometry x="895" y="545" width="110" height="40" as="geometry" />
        </mxCell>
        <mxCell id="cLD9-flNQuJHAPPy_8HS-50" value="id" style="ellipse;whiteSpace=wrap;html=1;" vertex="1" parent="1">
          <mxGeometry x="795" y="405" width="100" height="30" as="geometry" />
        </mxCell>
        <mxCell id="cLD9-flNQuJHAPPy_8HS-51" style="rounded=0;orthogonalLoop=1;jettySize=auto;html=1;exitX=0.69;exitY=1.033;exitDx=0;exitDy=0;entryX=0.18;entryY=-0.1;entryDx=0;entryDy=0;entryPerimeter=0;endArrow=none;startFill=0;exitPerimeter=0;" edge="1" parent="1" source="cLD9-flNQuJHAPPy_8HS-50" target="cLD9-flNQuJHAPPy_8HS-5">
          <mxGeometry relative="1" as="geometry" />
        </mxCell>
        <mxCell id="cLD9-flNQuJHAPPy_8HS-52" value="id" style="ellipse;whiteSpace=wrap;html=1;" vertex="1" parent="1">
          <mxGeometry x="1130" y="405" width="100" height="30" as="geometry" />
        </mxCell>
        <mxCell id="cLD9-flNQuJHAPPy_8HS-53" value="file_url" style="ellipse;whiteSpace=wrap;html=1;" vertex="1" parent="1">
          <mxGeometry x="1260" y="405" width="100" height="30" as="geometry" />
        </mxCell>
        <mxCell id="cLD9-flNQuJHAPPy_8HS-54" value="file_name" style="ellipse;whiteSpace=wrap;html=1;" vertex="1" parent="1">
          <mxGeometry x="1200" y="375" width="100" height="30" as="geometry" />
        </mxCell>
        <mxCell id="cLD9-flNQuJHAPPy_8HS-55" value="file_type" style="ellipse;whiteSpace=wrap;html=1;" vertex="1" parent="1">
          <mxGeometry x="1300" y="435" width="100" height="30" as="geometry" />
        </mxCell>
        <mxCell id="cLD9-flNQuJHAPPy_8HS-56" style="rounded=0;orthogonalLoop=1;jettySize=auto;html=1;exitX=0.5;exitY=0;exitDx=0;exitDy=0;endArrow=none;startFill=0;" edge="1" parent="1" source="cLD9-flNQuJHAPPy_8HS-25" target="cLD9-flNQuJHAPPy_8HS-52">
          <mxGeometry relative="1" as="geometry" />
        </mxCell>
        <mxCell id="cLD9-flNQuJHAPPy_8HS-57" value="&lt;span style=&quot;text-align: left;&quot;&gt;weight_total&lt;/span&gt;" style="ellipse;whiteSpace=wrap;html=1;" vertex="1" parent="1">
          <mxGeometry x="1005" y="770" width="100" height="30" as="geometry" />
        </mxCell>
        <mxCell id="cLD9-flNQuJHAPPy_8HS-58" value="&lt;span style=&quot;text-align: left;&quot;&gt;range_km&lt;/span&gt;" style="ellipse;whiteSpace=wrap;html=1;" vertex="1" parent="1">
          <mxGeometry x="1015" y="735" width="100" height="30" as="geometry" />
        </mxCell>
        <mxCell id="cLD9-flNQuJHAPPy_8HS-59" value="&lt;span style=&quot;text-align: left;&quot;&gt;pickup_point_address&lt;/span&gt;" style="ellipse;whiteSpace=wrap;html=1;" vertex="1" parent="1">
          <mxGeometry x="1070" y="605" width="100" height="30" as="geometry" />
        </mxCell>
        <mxCell id="cLD9-flNQuJHAPPy_8HS-60" value="&lt;span style=&quot;text-align: left;&quot;&gt;recipient&#39;s name&lt;/span&gt;" style="ellipse;whiteSpace=wrap;html=1;" vertex="1" parent="1">
          <mxGeometry x="990" y="535" width="100" height="30" as="geometry" />
        </mxCell>
        <mxCell id="cLD9-flNQuJHAPPy_8HS-61" style="rounded=0;orthogonalLoop=1;jettySize=auto;html=1;exitX=0.5;exitY=0;exitDx=0;exitDy=0;entryX=0.5;entryY=1;entryDx=0;entryDy=0;endArrow=none;startFill=0;" edge="1" parent="1" source="cLD9-flNQuJHAPPy_8HS-65" target="cLD9-flNQuJHAPPy_8HS-74">
          <mxGeometry relative="1" as="geometry" />
        </mxCell>
        <mxCell id="cLD9-flNQuJHAPPy_8HS-62" style="rounded=0;orthogonalLoop=1;jettySize=auto;html=1;exitX=0.5;exitY=0;exitDx=0;exitDy=0;entryX=0;entryY=1;entryDx=0;entryDy=0;endArrow=none;startFill=0;" edge="1" parent="1" source="cLD9-flNQuJHAPPy_8HS-65" target="cLD9-flNQuJHAPPy_8HS-73">
          <mxGeometry relative="1" as="geometry" />
        </mxCell>
        <mxCell id="cLD9-flNQuJHAPPy_8HS-63" style="rounded=0;orthogonalLoop=1;jettySize=auto;html=1;exitX=1;exitY=0;exitDx=0;exitDy=0;entryX=0;entryY=0.5;entryDx=0;entryDy=0;endArrow=none;startFill=0;" edge="1" parent="1" source="cLD9-flNQuJHAPPy_8HS-65" target="cLD9-flNQuJHAPPy_8HS-72">
          <mxGeometry relative="1" as="geometry" />
        </mxCell>
        <mxCell id="cLD9-flNQuJHAPPy_8HS-64" style="rounded=0;orthogonalLoop=1;jettySize=auto;html=1;exitX=1;exitY=0.5;exitDx=0;exitDy=0;entryX=0;entryY=0.5;entryDx=0;entryDy=0;endArrow=none;startFill=0;" edge="1" parent="1" source="cLD9-flNQuJHAPPy_8HS-65" target="cLD9-flNQuJHAPPy_8HS-71">
          <mxGeometry relative="1" as="geometry" />
        </mxCell>
        <mxCell id="cLD9-flNQuJHAPPy_8HS-65" value="Address" style="rounded=0;whiteSpace=wrap;html=1;" vertex="1" parent="1">
          <mxGeometry x="1160" y="635" width="100" height="40" as="geometry" />
        </mxCell>
        <mxCell id="cLD9-flNQuJHAPPy_8HS-66" value="&lt;span style=&quot;text-align: left;&quot;&gt;order_date&lt;/span&gt;" style="ellipse;whiteSpace=wrap;html=1;" vertex="1" parent="1">
          <mxGeometry x="990" y="805" width="100" height="30" as="geometry" />
        </mxCell>
        <mxCell id="cLD9-flNQuJHAPPy_8HS-67" style="rounded=0;orthogonalLoop=1;jettySize=auto;html=1;exitX=1;exitY=0.5;exitDx=0;exitDy=0;entryX=0;entryY=0.25;entryDx=0;entryDy=0;endArrow=none;startFill=0;" edge="1" parent="1" source="cLD9-flNQuJHAPPy_8HS-68" target="cLD9-flNQuJHAPPy_8HS-45">
          <mxGeometry relative="1" as="geometry" />
        </mxCell>
        <mxCell id="cLD9-flNQuJHAPPy_8HS-68" value="&lt;span style=&quot;text-align: left;&quot;&gt;estimation_time&lt;/span&gt;" style="ellipse;whiteSpace=wrap;html=1;" vertex="1" parent="1">
          <mxGeometry x="779.5" y="610" width="100" height="30" as="geometry" />
        </mxCell>
        <mxCell id="cLD9-flNQuJHAPPy_8HS-69" style="rounded=0;orthogonalLoop=1;jettySize=auto;html=1;exitX=1;exitY=0.5;exitDx=0;exitDy=0;entryX=0;entryY=1;entryDx=0;entryDy=0;endArrow=none;startFill=0;" edge="1" parent="1" source="cLD9-flNQuJHAPPy_8HS-70" target="cLD9-flNQuJHAPPy_8HS-45">
          <mxGeometry relative="1" as="geometry" />
        </mxCell>
        <mxCell id="cLD9-flNQuJHAPPy_8HS-70" value="&lt;span style=&quot;text-align: left;&quot;&gt;price&lt;/span&gt;" style="ellipse;whiteSpace=wrap;html=1;" vertex="1" parent="1">
          <mxGeometry x="790" y="700" width="100" height="30" as="geometry" />
        </mxCell>
        <mxCell id="cLD9-flNQuJHAPPy_8HS-71" value="&lt;span style=&quot;text-align: left;&quot;&gt;date&lt;/span&gt;" style="ellipse;whiteSpace=wrap;html=1;" vertex="1" parent="1">
          <mxGeometry x="1290" y="655" width="100" height="30" as="geometry" />
        </mxCell>
        <mxCell id="cLD9-flNQuJHAPPy_8HS-72" value="&lt;span style=&quot;text-align: left;&quot;&gt;destination_point_address&lt;/span&gt;" style="ellipse;whiteSpace=wrap;html=1;" vertex="1" parent="1">
          <mxGeometry x="1290" y="615" width="100" height="30" as="geometry" />
        </mxCell>
        <mxCell id="cLD9-flNQuJHAPPy_8HS-73" value="&lt;span style=&quot;text-align: left;&quot;&gt;pickup_point_address&lt;/span&gt;" style="ellipse;whiteSpace=wrap;html=1;" vertex="1" parent="1">
          <mxGeometry x="1240" y="585" width="100" height="30" as="geometry" />
        </mxCell>
        <mxCell id="cLD9-flNQuJHAPPy_8HS-74" value="&lt;span style=&quot;text-align: left;&quot;&gt;id&lt;/span&gt;" style="ellipse;whiteSpace=wrap;html=1;" vertex="1" parent="1">
          <mxGeometry x="1140" y="565" width="100" height="30" as="geometry" />
        </mxCell>
        <mxCell id="cLD9-flNQuJHAPPy_8HS-75" style="rounded=0;orthogonalLoop=1;jettySize=auto;html=1;exitX=0.65;exitY=0;exitDx=0;exitDy=0;entryX=0.25;entryY=1;entryDx=0;entryDy=0;endArrow=none;startFill=0;exitPerimeter=0;" edge="1" parent="1" source="cLD9-flNQuJHAPPy_8HS-76" target="cLD9-flNQuJHAPPy_8HS-45">
          <mxGeometry relative="1" as="geometry" />
        </mxCell>
        <mxCell id="cLD9-flNQuJHAPPy_8HS-76" value="&lt;span style=&quot;text-align: left;&quot;&gt;rating_driver&lt;/span&gt;" style="ellipse;whiteSpace=wrap;html=1;" vertex="1" parent="1">
          <mxGeometry x="850" y="760" width="100" height="30" as="geometry" />
        </mxCell>
        <mxCell id="cLD9-flNQuJHAPPy_8HS-77" style="rounded=0;orthogonalLoop=1;jettySize=auto;html=1;exitX=1;exitY=0.5;exitDx=0;exitDy=0;entryX=0.13;entryY=1.075;entryDx=0;entryDy=0;endArrow=none;startFill=0;entryPerimeter=0;" edge="1" parent="1" source="cLD9-flNQuJHAPPy_8HS-78" target="cLD9-flNQuJHAPPy_8HS-45">
          <mxGeometry relative="1" as="geometry" />
        </mxCell>
        <mxCell id="cLD9-flNQuJHAPPy_8HS-78" value="&lt;span style=&quot;text-align: left;&quot;&gt;delivery_status&lt;/span&gt;" style="ellipse;whiteSpace=wrap;html=1;" vertex="1" parent="1">
          <mxGeometry x="800" y="730" width="100" height="30" as="geometry" />
        </mxCell>
        <mxCell id="cLD9-flNQuJHAPPy_8HS-79" style="edgeStyle=orthogonalEdgeStyle;rounded=0;orthogonalLoop=1;jettySize=auto;html=1;exitX=1;exitY=0.5;exitDx=0;exitDy=0;entryX=0;entryY=0.5;entryDx=0;entryDy=0;endArrow=none;startFill=0;" edge="1" parent="1" source="cLD9-flNQuJHAPPy_8HS-80" target="cLD9-flNQuJHAPPy_8HS-65">
          <mxGeometry relative="1" as="geometry" />
        </mxCell>
        <mxCell id="cLD9-flNQuJHAPPy_8HS-80" value="memiliki" style="rhombus;whiteSpace=wrap;html=1;" vertex="1" parent="1">
          <mxGeometry x="1030" y="635" width="110" height="40" as="geometry" />
        </mxCell>
        <mxCell id="cLD9-flNQuJHAPPy_8HS-81" style="rounded=0;orthogonalLoop=1;jettySize=auto;html=1;exitX=0;exitY=0;exitDx=0;exitDy=0;endArrow=none;startFill=0;" edge="1" parent="1" source="cLD9-flNQuJHAPPy_8HS-66" target="cLD9-flNQuJHAPPy_8HS-45">
          <mxGeometry relative="1" as="geometry" />
        </mxCell>
        <mxCell id="cLD9-flNQuJHAPPy_8HS-82" value="created_at" style="ellipse;whiteSpace=wrap;html=1;" vertex="1" parent="1">
          <mxGeometry x="470" y="465" width="100" height="30" as="geometry" />
        </mxCell>
        <mxCell id="cLD9-flNQuJHAPPy_8HS-83" value="user_id" style="ellipse;whiteSpace=wrap;html=1;" vertex="1" parent="1">
          <mxGeometry x="550" y="385" width="100" height="30" as="geometry" />
        </mxCell>
        <mxCell id="cLD9-flNQuJHAPPy_8HS-84" style="rounded=0;orthogonalLoop=1;jettySize=auto;html=1;exitX=1;exitY=1;exitDx=0;exitDy=0;entryX=0;entryY=0.25;entryDx=0;entryDy=0;endArrow=none;startFill=0;" edge="1" parent="1" source="cLD9-flNQuJHAPPy_8HS-85" target="cLD9-flNQuJHAPPy_8HS-45">
          <mxGeometry relative="1" as="geometry" />
        </mxCell>
        <mxCell id="cLD9-flNQuJHAPPy_8HS-85" value="id" style="ellipse;whiteSpace=wrap;html=1;" vertex="1" parent="1">
          <mxGeometry x="795" y="580" width="100" height="30" as="geometry" />
        </mxCell>
        <mxCell id="cLD9-flNQuJHAPPy_8HS-86" value="id" style="ellipse;whiteSpace=wrap;html=1;" vertex="1" parent="1">
          <mxGeometry x="650" y="415" width="100" height="30" as="geometry" />
        </mxCell>
        <mxCell id="cLD9-flNQuJHAPPy_8HS-87" value="expired_at" style="ellipse;whiteSpace=wrap;html=1;" vertex="1" parent="1">
          <mxGeometry x="480" y="505" width="100" height="30" as="geometry" />
        </mxCell>
        <mxCell id="cLD9-flNQuJHAPPy_8HS-88" value="access_token" style="ellipse;whiteSpace=wrap;html=1;" vertex="1" parent="1">
          <mxGeometry x="470" y="435" width="100" height="30" as="geometry" />
        </mxCell>
        <mxCell id="cLD9-flNQuJHAPPy_8HS-89" value="id" style="ellipse;whiteSpace=wrap;html=1;" vertex="1" parent="1">
          <mxGeometry x="549.5" y="740" width="100" height="30" as="geometry" />
        </mxCell>
        <mxCell id="cLD9-flNQuJHAPPy_8HS-90" style="edgeStyle=orthogonalEdgeStyle;rounded=0;orthogonalLoop=1;jettySize=auto;html=1;exitX=0.5;exitY=1;exitDx=0;exitDy=0;entryX=0.5;entryY=0;entryDx=0;entryDy=0;endArrow=none;startFill=0;" edge="1" parent="1" source="cLD9-flNQuJHAPPy_8HS-91" target="cLD9-flNQuJHAPPy_8HS-36">
          <mxGeometry relative="1" as="geometry" />
        </mxCell>
        <mxCell id="cLD9-flNQuJHAPPy_8HS-91" value="name" style="ellipse;whiteSpace=wrap;html=1;" vertex="1" parent="1">
          <mxGeometry x="639.5" y="725" width="100" height="30" as="geometry" />
        </mxCell>
        <mxCell id="cLD9-flNQuJHAPPy_8HS-92" style="rounded=0;orthogonalLoop=1;jettySize=auto;html=1;exitX=1;exitY=0.5;exitDx=0;exitDy=0;entryX=0;entryY=0.75;entryDx=0;entryDy=0;endArrow=none;startFill=0;" edge="1" parent="1" source="cLD9-flNQuJHAPPy_8HS-93" target="cLD9-flNQuJHAPPy_8HS-36">
          <mxGeometry relative="1" as="geometry" />
        </mxCell>
        <mxCell id="cLD9-flNQuJHAPPy_8HS-93" value="&lt;span style=&quot;text-align: left;&quot;&gt;is_active&lt;/span&gt;" style="ellipse;whiteSpace=wrap;html=1;" vertex="1" parent="1">
          <mxGeometry x="519.5" y="860" width="100" height="30" as="geometry" />
        </mxCell>
        <mxCell id="cLD9-flNQuJHAPPy_8HS-94" style="rounded=0;orthogonalLoop=1;jettySize=auto;html=1;exitX=1;exitY=0.5;exitDx=0;exitDy=0;entryX=0;entryY=0.5;entryDx=0;entryDy=0;endArrow=none;startFill=0;" edge="1" parent="1" source="cLD9-flNQuJHAPPy_8HS-95" target="cLD9-flNQuJHAPPy_8HS-36">
          <mxGeometry relative="1" as="geometry" />
        </mxCell>
        <mxCell id="cLD9-flNQuJHAPPy_8HS-95" value="&lt;span style=&quot;text-align: left;&quot;&gt;is_available&lt;/span&gt;" style="ellipse;whiteSpace=wrap;html=1;" vertex="1" parent="1">
          <mxGeometry x="509.5" y="830" width="100" height="30" as="geometry" />
        </mxCell>
        <mxCell id="cLD9-flNQuJHAPPy_8HS-96" style="rounded=0;orthogonalLoop=1;jettySize=auto;html=1;exitX=1;exitY=0.5;exitDx=0;exitDy=0;entryX=0.09;entryY=1.025;entryDx=0;entryDy=0;endArrow=none;startFill=0;entryPerimeter=0;" edge="1" parent="1" source="cLD9-flNQuJHAPPy_8HS-97" target="cLD9-flNQuJHAPPy_8HS-36">
          <mxGeometry relative="1" as="geometry" />
        </mxCell>
        <mxCell id="cLD9-flNQuJHAPPy_8HS-97" value="&lt;span style=&quot;text-align: left;&quot;&gt;unsuspend_in&lt;/span&gt;" style="ellipse;whiteSpace=wrap;html=1;" vertex="1" parent="1">
          <mxGeometry x="529.5" y="890" width="100" height="30" as="geometry" />
        </mxCell>
        <mxCell id="cLD9-flNQuJHAPPy_8HS-98" style="rounded=0;orthogonalLoop=1;jettySize=auto;html=1;exitX=0.5;exitY=1;exitDx=0;exitDy=0;entryX=0.75;entryY=0;entryDx=0;entryDy=0;endArrow=none;startFill=0;" edge="1" parent="1" source="cLD9-flNQuJHAPPy_8HS-99" target="cLD9-flNQuJHAPPy_8HS-36">
          <mxGeometry relative="1" as="geometry" />
        </mxCell>
        <mxCell id="cLD9-flNQuJHAPPy_8HS-99" value="phone_number" style="ellipse;whiteSpace=wrap;html=1;" vertex="1" parent="1">
          <mxGeometry x="699.5" y="755" width="100" height="30" as="geometry" />
        </mxCell>
        <mxCell id="cLD9-flNQuJHAPPy_8HS-100" style="rounded=0;orthogonalLoop=1;jettySize=auto;html=1;exitX=1;exitY=0.5;exitDx=0;exitDy=0;entryX=0;entryY=0;entryDx=0;entryDy=0;endArrow=none;startFill=0;" edge="1" parent="1" source="cLD9-flNQuJHAPPy_8HS-101" target="cLD9-flNQuJHAPPy_8HS-36">
          <mxGeometry relative="1" as="geometry" />
        </mxCell>
        <mxCell id="cLD9-flNQuJHAPPy_8HS-101" value="email" style="ellipse;whiteSpace=wrap;html=1;" vertex="1" parent="1">
          <mxGeometry x="519.5" y="770" width="100" height="30" as="geometry" />
        </mxCell>
        <mxCell id="cLD9-flNQuJHAPPy_8HS-102" style="rounded=0;orthogonalLoop=1;jettySize=auto;html=1;exitX=1;exitY=0.5;exitDx=0;exitDy=0;entryX=0;entryY=0.25;entryDx=0;entryDy=0;endArrow=none;startFill=0;" edge="1" parent="1" source="cLD9-flNQuJHAPPy_8HS-103" target="cLD9-flNQuJHAPPy_8HS-36">
          <mxGeometry relative="1" as="geometry" />
        </mxCell>
        <mxCell id="cLD9-flNQuJHAPPy_8HS-103" value="driver_rating" style="ellipse;whiteSpace=wrap;html=1;" vertex="1" parent="1">
          <mxGeometry x="499.5" y="800" width="100" height="30" as="geometry" />
        </mxCell>
        <mxCell id="cLD9-flNQuJHAPPy_8HS-104" style="rounded=0;orthogonalLoop=1;jettySize=auto;html=1;exitX=0.5;exitY=1;exitDx=0;exitDy=0;entryX=0.5;entryY=0;entryDx=0;entryDy=0;endArrow=none;startFill=0;" edge="1" parent="1" source="cLD9-flNQuJHAPPy_8HS-105" target="cLD9-flNQuJHAPPy_8HS-117">
          <mxGeometry relative="1" as="geometry" />
        </mxCell>
        <mxCell id="cLD9-flNQuJHAPPy_8HS-105" value="vehicle" style="rounded=0;whiteSpace=wrap;html=1;" vertex="1" parent="1">
          <mxGeometry x="639.5" y="955" width="100" height="40" as="geometry" />
        </mxCell>
        <mxCell id="cLD9-flNQuJHAPPy_8HS-106" style="rounded=0;orthogonalLoop=1;jettySize=auto;html=1;exitX=1;exitY=1;exitDx=0;exitDy=0;entryX=0.08;entryY=0;entryDx=0;entryDy=0;entryPerimeter=0;endArrow=none;startFill=0;" edge="1" parent="1" source="cLD9-flNQuJHAPPy_8HS-89" target="cLD9-flNQuJHAPPy_8HS-36">
          <mxGeometry relative="1" as="geometry" />
        </mxCell>
        <mxCell id="cLD9-flNQuJHAPPy_8HS-107" style="edgeStyle=orthogonalEdgeStyle;rounded=0;orthogonalLoop=1;jettySize=auto;html=1;exitX=0.5;exitY=1;exitDx=0;exitDy=0;entryX=0.5;entryY=0;entryDx=0;entryDy=0;endArrow=none;startFill=0;" edge="1" parent="1" source="cLD9-flNQuJHAPPy_8HS-108" target="cLD9-flNQuJHAPPy_8HS-105">
          <mxGeometry relative="1" as="geometry" />
        </mxCell>
        <mxCell id="cLD9-flNQuJHAPPy_8HS-108" value="memiliki" style="rhombus;whiteSpace=wrap;html=1;" vertex="1" parent="1">
          <mxGeometry x="634.5" y="885" width="110" height="40" as="geometry" />
        </mxCell>
        <mxCell id="cLD9-flNQuJHAPPy_8HS-109" style="edgeStyle=orthogonalEdgeStyle;rounded=0;orthogonalLoop=1;jettySize=auto;html=1;exitX=1;exitY=0.5;exitDx=0;exitDy=0;entryX=0;entryY=0.5;entryDx=0;entryDy=0;endArrow=none;startFill=0;" edge="1" parent="1" source="cLD9-flNQuJHAPPy_8HS-110" target="cLD9-flNQuJHAPPy_8HS-105">
          <mxGeometry relative="1" as="geometry" />
        </mxCell>
        <mxCell id="cLD9-flNQuJHAPPy_8HS-110" value="&lt;span style=&quot;text-align: left;&quot;&gt;id&lt;/span&gt;" style="ellipse;whiteSpace=wrap;html=1;" vertex="1" parent="1">
          <mxGeometry x="499.5" y="960" width="100" height="30" as="geometry" />
        </mxCell>
        <mxCell id="cLD9-flNQuJHAPPy_8HS-111" style="rounded=0;orthogonalLoop=1;jettySize=auto;html=1;exitX=1;exitY=0.5;exitDx=0;exitDy=0;entryX=0;entryY=0.75;entryDx=0;entryDy=0;endArrow=none;startFill=0;" edge="1" parent="1" source="cLD9-flNQuJHAPPy_8HS-112" target="cLD9-flNQuJHAPPy_8HS-105">
          <mxGeometry relative="1" as="geometry" />
        </mxCell>
        <mxCell id="cLD9-flNQuJHAPPy_8HS-112" value="&lt;span style=&quot;text-align: left;&quot;&gt;vehicle_type&lt;/span&gt;" style="ellipse;whiteSpace=wrap;html=1;" vertex="1" parent="1">
          <mxGeometry x="509.5" y="995" width="100" height="30" as="geometry" />
        </mxCell>
        <mxCell id="cLD9-flNQuJHAPPy_8HS-113" style="rounded=0;orthogonalLoop=1;jettySize=auto;html=1;exitX=0.68;exitY=0;exitDx=0;exitDy=0;entryX=0;entryY=1;entryDx=0;entryDy=0;endArrow=none;startFill=0;exitPerimeter=0;" edge="1" parent="1" source="cLD9-flNQuJHAPPy_8HS-114" target="cLD9-flNQuJHAPPy_8HS-105">
          <mxGeometry relative="1" as="geometry" />
        </mxCell>
        <mxCell id="cLD9-flNQuJHAPPy_8HS-114" value="&lt;span style=&quot;text-align: left;&quot;&gt;vehicle_brand&lt;/span&gt;" style="ellipse;whiteSpace=wrap;html=1;" vertex="1" parent="1">
          <mxGeometry x="534.5" y="1035" width="100" height="30" as="geometry" />
        </mxCell>
        <mxCell id="cLD9-flNQuJHAPPy_8HS-115" style="rounded=0;orthogonalLoop=1;jettySize=auto;html=1;exitX=0.5;exitY=0;exitDx=0;exitDy=0;entryX=0.25;entryY=1;entryDx=0;entryDy=0;endArrow=none;startFill=0;" edge="1" parent="1" source="cLD9-flNQuJHAPPy_8HS-116" target="cLD9-flNQuJHAPPy_8HS-105">
          <mxGeometry relative="1" as="geometry" />
        </mxCell>
        <mxCell id="cLD9-flNQuJHAPPy_8HS-116" value="&lt;span style=&quot;text-align: left;&quot;&gt;vehicle_color&lt;/span&gt;" style="ellipse;whiteSpace=wrap;html=1;" vertex="1" parent="1">
          <mxGeometry x="599.5" y="1065" width="100" height="30" as="geometry" />
        </mxCell>
        <mxCell id="cLD9-flNQuJHAPPy_8HS-117" value="&lt;span style=&quot;text-align: left;&quot;&gt;plate_number&lt;/span&gt;" style="ellipse;whiteSpace=wrap;html=1;" vertex="1" parent="1">
          <mxGeometry x="679.5" y="1045" width="100" height="30" as="geometry" />
        </mxCell>
        <mxCell id="cLD9-flNQuJHAPPy_8HS-118" style="rounded=0;orthogonalLoop=1;jettySize=auto;html=1;exitX=1;exitY=0.5;exitDx=0;exitDy=0;entryX=0;entryY=1;entryDx=0;entryDy=0;endArrow=none;startFill=0;" edge="1" parent="1" source="cLD9-flNQuJHAPPy_8HS-119" target="cLD9-flNQuJHAPPy_8HS-25">
          <mxGeometry relative="1" as="geometry" />
        </mxCell>
        <mxCell id="cLD9-flNQuJHAPPy_8HS-119" value="memiliki" style="rhombus;whiteSpace=wrap;html=1;" vertex="1" parent="1">
          <mxGeometry x="1015" y="565" width="110" height="40" as="geometry" />
        </mxCell>
        <mxCell id="cLD9-flNQuJHAPPy_8HS-120" style="edgeStyle=orthogonalEdgeStyle;rounded=0;orthogonalLoop=1;jettySize=auto;html=1;exitX=0.5;exitY=0;exitDx=0;exitDy=0;entryX=0.5;entryY=1;entryDx=0;entryDy=0;endArrow=none;startFill=0;" edge="1" parent="1" source="cLD9-flNQuJHAPPy_8HS-121" target="cLD9-flNQuJHAPPy_8HS-123">
          <mxGeometry relative="1" as="geometry" />
        </mxCell>
        <mxCell id="cLD9-flNQuJHAPPy_8HS-121" value="memiliki" style="rhombus;whiteSpace=wrap;html=1;" vertex="1" parent="1">
          <mxGeometry x="895" y="345" width="110" height="40" as="geometry" />
        </mxCell>
        <mxCell id="cLD9-flNQuJHAPPy_8HS-122" style="rounded=0;orthogonalLoop=1;jettySize=auto;html=1;exitX=0.25;exitY=0;exitDx=0;exitDy=0;entryX=1;entryY=1;entryDx=0;entryDy=0;endArrow=none;startFill=0;" edge="1" parent="1" source="cLD9-flNQuJHAPPy_8HS-123" target="cLD9-flNQuJHAPPy_8HS-124">
          <mxGeometry relative="1" as="geometry" />
        </mxCell>
        <mxCell id="cLD9-flNQuJHAPPy_8HS-123" value="Role" style="rounded=0;whiteSpace=wrap;html=1;" vertex="1" parent="1">
          <mxGeometry x="900" y="275" width="100" height="40" as="geometry" />
        </mxCell>
        <mxCell id="cLD9-flNQuJHAPPy_8HS-124" value="id" style="ellipse;whiteSpace=wrap;html=1;" vertex="1" parent="1">
          <mxGeometry x="830" y="225" width="100" height="30" as="geometry" />
        </mxCell>
        <mxCell id="cLD9-flNQuJHAPPy_8HS-125" value="role_name" style="ellipse;whiteSpace=wrap;html=1;" vertex="1" parent="1">
          <mxGeometry x="950" y="225" width="100" height="30" as="geometry" />
        </mxCell>
        <mxCell id="cLD9-flNQuJHAPPy_8HS-126" style="rounded=0;orthogonalLoop=1;jettySize=auto;html=1;exitX=0.75;exitY=0;exitDx=0;exitDy=0;entryX=0.3;entryY=0.967;entryDx=0;entryDy=0;entryPerimeter=0;endArrow=none;startFill=0;" edge="1" parent="1" source="cLD9-flNQuJHAPPy_8HS-123" target="cLD9-flNQuJHAPPy_8HS-125">
          <mxGeometry relative="1" as="geometry" />
        </mxCell>
        <mxCell id="cLD9-flNQuJHAPPy_8HS-127" style="edgeStyle=orthogonalEdgeStyle;rounded=0;orthogonalLoop=1;jettySize=auto;html=1;exitX=1;exitY=0.5;exitDx=0;exitDy=0;entryX=0.5;entryY=0;entryDx=0;entryDy=0;endArrow=none;startFill=0;" edge="1" parent="1" source="cLD9-flNQuJHAPPy_8HS-128" target="cLD9-flNQuJHAPPy_8HS-134">
          <mxGeometry relative="1" as="geometry" />
        </mxCell>
        <mxCell id="cLD9-flNQuJHAPPy_8HS-128" value="melakukan" style="rhombus;whiteSpace=wrap;html=1;" vertex="1" parent="1">
          <mxGeometry x="1030" y="685" width="110" height="40" as="geometry" />
        </mxCell>
        <mxCell id="cLD9-flNQuJHAPPy_8HS-129" style="rounded=0;orthogonalLoop=1;jettySize=auto;html=1;exitX=1;exitY=0;exitDx=0;exitDy=0;entryX=0;entryY=0.5;entryDx=0;entryDy=0;endArrow=none;startFill=0;" edge="1" parent="1" source="cLD9-flNQuJHAPPy_8HS-134" target="cLD9-flNQuJHAPPy_8HS-139">
          <mxGeometry relative="1" as="geometry" />
        </mxCell>
        <mxCell id="cLD9-flNQuJHAPPy_8HS-130" style="rounded=0;orthogonalLoop=1;jettySize=auto;html=1;exitX=1;exitY=0.25;exitDx=0;exitDy=0;entryX=0;entryY=0.5;entryDx=0;entryDy=0;endArrow=none;startFill=0;" edge="1" parent="1" source="cLD9-flNQuJHAPPy_8HS-134" target="cLD9-flNQuJHAPPy_8HS-138">
          <mxGeometry relative="1" as="geometry" />
        </mxCell>
        <mxCell id="cLD9-flNQuJHAPPy_8HS-131" style="rounded=0;orthogonalLoop=1;jettySize=auto;html=1;exitX=1;exitY=0.5;exitDx=0;exitDy=0;entryX=0;entryY=0.5;entryDx=0;entryDy=0;endArrow=none;startFill=0;" edge="1" parent="1" source="cLD9-flNQuJHAPPy_8HS-134" target="cLD9-flNQuJHAPPy_8HS-137">
          <mxGeometry relative="1" as="geometry" />
        </mxCell>
        <mxCell id="cLD9-flNQuJHAPPy_8HS-132" style="rounded=0;orthogonalLoop=1;jettySize=auto;html=1;exitX=1;exitY=1;exitDx=0;exitDy=0;entryX=0;entryY=0.5;entryDx=0;entryDy=0;endArrow=none;startFill=0;" edge="1" parent="1" source="cLD9-flNQuJHAPPy_8HS-134" target="cLD9-flNQuJHAPPy_8HS-136">
          <mxGeometry relative="1" as="geometry" />
        </mxCell>
        <mxCell id="cLD9-flNQuJHAPPy_8HS-133" style="edgeStyle=orthogonalEdgeStyle;rounded=0;orthogonalLoop=1;jettySize=auto;html=1;exitX=0.5;exitY=1;exitDx=0;exitDy=0;entryX=0.5;entryY=0;entryDx=0;entryDy=0;endArrow=none;startFill=0;" edge="1" parent="1" source="cLD9-flNQuJHAPPy_8HS-134" target="cLD9-flNQuJHAPPy_8HS-141">
          <mxGeometry relative="1" as="geometry" />
        </mxCell>
        <mxCell id="cLD9-flNQuJHAPPy_8HS-134" value="Payment" style="rounded=0;whiteSpace=wrap;html=1;" vertex="1" parent="1">
          <mxGeometry x="1160" y="725" width="100" height="40" as="geometry" />
        </mxCell>
        <mxCell id="cLD9-flNQuJHAPPy_8HS-135" value="&lt;span style=&quot;text-align: left;&quot;&gt;payment_status&lt;/span&gt;" style="ellipse;whiteSpace=wrap;html=1;" vertex="1" parent="1">
          <mxGeometry x="1250" y="830" width="100" height="30" as="geometry" />
        </mxCell>
        <mxCell id="cLD9-flNQuJHAPPy_8HS-136" value="&lt;span style=&quot;text-align: left;&quot;&gt;transaction_time&lt;/span&gt;" style="ellipse;whiteSpace=wrap;html=1;" vertex="1" parent="1">
          <mxGeometry x="1310" y="800" width="100" height="30" as="geometry" />
        </mxCell>
        <mxCell id="cLD9-flNQuJHAPPy_8HS-137" value="&lt;span style=&quot;text-align: left;&quot;&gt;total_price&lt;/span&gt;" style="ellipse;whiteSpace=wrap;html=1;" vertex="1" parent="1">
          <mxGeometry x="1320" y="765" width="100" height="30" as="geometry" />
        </mxCell>
        <mxCell id="cLD9-flNQuJHAPPy_8HS-138" value="&lt;span style=&quot;text-align: left;&quot;&gt;payment_method&lt;/span&gt;" style="ellipse;whiteSpace=wrap;html=1;" vertex="1" parent="1">
          <mxGeometry x="1310" y="730" width="100" height="30" as="geometry" />
        </mxCell>
        <mxCell id="cLD9-flNQuJHAPPy_8HS-139" value="&lt;span style=&quot;text-align: left;&quot;&gt;id&lt;/span&gt;" style="ellipse;whiteSpace=wrap;html=1;" vertex="1" parent="1">
          <mxGeometry x="1280" y="695" width="100" height="30" as="geometry" />
        </mxCell>
        <mxCell id="cLD9-flNQuJHAPPy_8HS-140" style="rounded=0;orthogonalLoop=1;jettySize=auto;html=1;exitX=0.75;exitY=1;exitDx=0;exitDy=0;endArrow=none;startFill=0;entryX=0.5;entryY=0;entryDx=0;entryDy=0;" edge="1" parent="1" source="cLD9-flNQuJHAPPy_8HS-134" target="cLD9-flNQuJHAPPy_8HS-135">
          <mxGeometry relative="1" as="geometry">
            <mxPoint x="1280" y="815" as="targetPoint" />
          </mxGeometry>
        </mxCell>
        <mxCell id="cLD9-flNQuJHAPPy_8HS-141" value="memiliki" style="rhombus;whiteSpace=wrap;html=1;" vertex="1" parent="1">
          <mxGeometry x="1155" y="805" width="110" height="40" as="geometry" />
        </mxCell>
        <mxCell id="cLD9-flNQuJHAPPy_8HS-142" style="edgeStyle=orthogonalEdgeStyle;rounded=0;orthogonalLoop=1;jettySize=auto;html=1;exitX=0;exitY=0.25;exitDx=0;exitDy=0;entryX=1;entryY=0.5;entryDx=0;entryDy=0;endArrow=none;startFill=0;" edge="1" parent="1" source="cLD9-flNQuJHAPPy_8HS-148" target="cLD9-flNQuJHAPPy_8HS-154">
          <mxGeometry relative="1" as="geometry" />
        </mxCell>
        <mxCell id="cLD9-flNQuJHAPPy_8HS-143" style="rounded=0;orthogonalLoop=1;jettySize=auto;html=1;exitX=0;exitY=0.75;exitDx=0;exitDy=0;entryX=1;entryY=0;entryDx=0;entryDy=0;endArrow=none;startFill=0;" edge="1" parent="1" source="cLD9-flNQuJHAPPy_8HS-148" target="cLD9-flNQuJHAPPy_8HS-153">
          <mxGeometry relative="1" as="geometry" />
        </mxCell>
        <mxCell id="cLD9-flNQuJHAPPy_8HS-144" style="rounded=0;orthogonalLoop=1;jettySize=auto;html=1;exitX=0;exitY=1;exitDx=0;exitDy=0;entryX=1;entryY=0;entryDx=0;entryDy=0;endArrow=none;startFill=0;" edge="1" parent="1" source="cLD9-flNQuJHAPPy_8HS-148" target="cLD9-flNQuJHAPPy_8HS-152">
          <mxGeometry relative="1" as="geometry" />
        </mxCell>
        <mxCell id="cLD9-flNQuJHAPPy_8HS-145" style="rounded=0;orthogonalLoop=1;jettySize=auto;html=1;exitX=0.25;exitY=1;exitDx=0;exitDy=0;entryX=1;entryY=0;entryDx=0;entryDy=0;endArrow=none;startFill=0;" edge="1" parent="1" source="cLD9-flNQuJHAPPy_8HS-148" target="cLD9-flNQuJHAPPy_8HS-151">
          <mxGeometry relative="1" as="geometry" />
        </mxCell>
        <mxCell id="cLD9-flNQuJHAPPy_8HS-146" style="edgeStyle=orthogonalEdgeStyle;rounded=0;orthogonalLoop=1;jettySize=auto;html=1;exitX=0.5;exitY=1;exitDx=0;exitDy=0;entryX=0.5;entryY=0;entryDx=0;entryDy=0;endArrow=none;startFill=0;" edge="1" parent="1" source="cLD9-flNQuJHAPPy_8HS-148" target="cLD9-flNQuJHAPPy_8HS-150">
          <mxGeometry relative="1" as="geometry" />
        </mxCell>
        <mxCell id="cLD9-flNQuJHAPPy_8HS-147" style="rounded=0;orthogonalLoop=1;jettySize=auto;html=1;exitX=1;exitY=0.5;exitDx=0;exitDy=0;entryX=0;entryY=0.5;entryDx=0;entryDy=0;endArrow=none;startFill=0;" edge="1" parent="1" source="cLD9-flNQuJHAPPy_8HS-148" target="cLD9-flNQuJHAPPy_8HS-157">
          <mxGeometry relative="1" as="geometry" />
        </mxCell>
        <mxCell id="cLD9-flNQuJHAPPy_8HS-148" value="voucher_discount" style="rounded=0;whiteSpace=wrap;html=1;" vertex="1" parent="1">
          <mxGeometry x="1160" y="890" width="100" height="40" as="geometry" />
        </mxCell>
        <mxCell id="cLD9-flNQuJHAPPy_8HS-149" style="rounded=0;orthogonalLoop=1;jettySize=auto;html=1;exitX=0.5;exitY=1;exitDx=0;exitDy=0;endArrow=none;startFill=0;entryX=0.5;entryY=0;entryDx=0;entryDy=0;" edge="1" parent="1" source="cLD9-flNQuJHAPPy_8HS-141" target="cLD9-flNQuJHAPPy_8HS-148">
          <mxGeometry relative="1" as="geometry">
            <mxPoint x="1220" y="875" as="targetPoint" />
          </mxGeometry>
        </mxCell>
        <mxCell id="cLD9-flNQuJHAPPy_8HS-150" value="&lt;span style=&quot;text-align: left;&quot;&gt;usage_count&lt;/span&gt;" style="ellipse;whiteSpace=wrap;html=1;" vertex="1" parent="1">
          <mxGeometry x="1160" y="1015" width="100" height="30" as="geometry" />
        </mxCell>
        <mxCell id="cLD9-flNQuJHAPPy_8HS-151" value="&lt;span style=&quot;text-align: left;&quot;&gt;usage_limit&lt;/span&gt;" style="ellipse;whiteSpace=wrap;html=1;" vertex="1" parent="1">
          <mxGeometry x="1080" y="990" width="100" height="30" as="geometry" />
        </mxCell>
        <mxCell id="cLD9-flNQuJHAPPy_8HS-152" value="&lt;span style=&quot;text-align: left;&quot;&gt;discount_value&lt;/span&gt;" style="ellipse;whiteSpace=wrap;html=1;" vertex="1" parent="1">
          <mxGeometry x="1045" y="960" width="100" height="30" as="geometry" />
        </mxCell>
        <mxCell id="cLD9-flNQuJHAPPy_8HS-153" value="&lt;span style=&quot;text-align: left;&quot;&gt;discount_description&lt;/span&gt;" style="ellipse;whiteSpace=wrap;html=1;" vertex="1" parent="1">
          <mxGeometry x="1030" y="925" width="100" height="30" as="geometry" />
        </mxCell>
        <mxCell id="cLD9-flNQuJHAPPy_8HS-154" value="&lt;span style=&quot;text-align: left;&quot;&gt;discount_name&lt;/span&gt;" style="ellipse;whiteSpace=wrap;html=1;" vertex="1" parent="1">
          <mxGeometry x="1020" y="885" width="100" height="30" as="geometry" />
        </mxCell>
        <mxCell id="cLD9-flNQuJHAPPy_8HS-155" value="&lt;span style=&quot;text-align: left;&quot;&gt;id&lt;/span&gt;" style="ellipse;whiteSpace=wrap;html=1;" vertex="1" parent="1">
          <mxGeometry x="1050" y="845" width="100" height="30" as="geometry" />
        </mxCell>
        <mxCell id="cLD9-flNQuJHAPPy_8HS-156" value="&lt;span style=&quot;text-align: left;&quot;&gt;valid_from&lt;/span&gt;" style="ellipse;whiteSpace=wrap;html=1;" vertex="1" parent="1">
          <mxGeometry x="1230" y="990" width="100" height="30" as="geometry" />
        </mxCell>
        <mxCell id="cLD9-flNQuJHAPPy_8HS-157" value="&lt;span style=&quot;text-align: left;&quot;&gt;is_active&lt;/span&gt;" style="ellipse;whiteSpace=wrap;html=1;" vertex="1" parent="1">
          <mxGeometry x="1300" y="925" width="100" height="30" as="geometry" />
        </mxCell>
        <mxCell id="cLD9-flNQuJHAPPy_8HS-158" value="&lt;span style=&quot;text-align: left;&quot;&gt;valid_until&lt;/span&gt;" style="ellipse;whiteSpace=wrap;html=1;" vertex="1" parent="1">
          <mxGeometry x="1280" y="960" width="100" height="30" as="geometry" />
        </mxCell>
        <mxCell id="cLD9-flNQuJHAPPy_8HS-159" style="rounded=0;orthogonalLoop=1;jettySize=auto;html=1;exitX=0;exitY=0;exitDx=0;exitDy=0;entryX=0.92;entryY=0.767;entryDx=0;entryDy=0;entryPerimeter=0;endArrow=none;startFill=0;" edge="1" parent="1" source="cLD9-flNQuJHAPPy_8HS-148" target="cLD9-flNQuJHAPPy_8HS-155">
          <mxGeometry relative="1" as="geometry" />
        </mxCell>
        <mxCell id="cLD9-flNQuJHAPPy_8HS-160" style="rounded=0;orthogonalLoop=1;jettySize=auto;html=1;exitX=0.75;exitY=1;exitDx=0;exitDy=0;entryX=0.25;entryY=0.133;entryDx=0;entryDy=0;entryPerimeter=0;endArrow=none;startFill=0;" edge="1" parent="1" source="cLD9-flNQuJHAPPy_8HS-148" target="cLD9-flNQuJHAPPy_8HS-156">
          <mxGeometry relative="1" as="geometry" />
        </mxCell>
        <mxCell id="cLD9-flNQuJHAPPy_8HS-161" style="rounded=0;orthogonalLoop=1;jettySize=auto;html=1;exitX=1;exitY=1;exitDx=0;exitDy=0;entryX=-0.01;entryY=0.3;entryDx=0;entryDy=0;entryPerimeter=0;endArrow=none;startFill=0;" edge="1" parent="1" source="cLD9-flNQuJHAPPy_8HS-148" target="cLD9-flNQuJHAPPy_8HS-158">
          <mxGeometry relative="1" as="geometry" />
        </mxCell>
        <mxCell id="cLD9-flNQuJHAPPy_8HS-162" style="rounded=0;orthogonalLoop=1;jettySize=auto;html=1;exitX=0;exitY=0;exitDx=0;exitDy=0;entryX=1;entryY=0.5;entryDx=0;entryDy=0;endArrow=none;startFill=0;" edge="1" parent="1" source="cLD9-flNQuJHAPPy_8HS-164" target="cLD9-flNQuJHAPPy_8HS-165">
          <mxGeometry relative="1" as="geometry" />
        </mxCell>
        <mxCell id="cLD9-flNQuJHAPPy_8HS-163" style="rounded=0;orthogonalLoop=1;jettySize=auto;html=1;exitX=0;exitY=0.5;exitDx=0;exitDy=0;endArrow=none;startFill=0;" edge="1" parent="1" source="cLD9-flNQuJHAPPy_8HS-164" target="cLD9-flNQuJHAPPy_8HS-167">
          <mxGeometry relative="1" as="geometry" />
        </mxCell>
        <mxCell id="cLD9-flNQuJHAPPy_8HS-164" value="item" style="rounded=0;whiteSpace=wrap;html=1;" vertex="1" parent="1">
          <mxGeometry x="509.5" y="635" width="100" height="40" as="geometry" />
        </mxCell>
        <mxCell id="cLD9-flNQuJHAPPy_8HS-165" value="id" style="ellipse;whiteSpace=wrap;html=1;" vertex="1" parent="1">
          <mxGeometry x="390" y="595" width="100" height="30" as="geometry" />
        </mxCell>
        <mxCell id="cLD9-flNQuJHAPPy_8HS-166" value="&lt;span style=&quot;text-align: left;&quot;&gt;other_item&lt;/span&gt;" style="ellipse;whiteSpace=wrap;html=1;" vertex="1" parent="1">
          <mxGeometry x="390" y="690" width="100" height="30" as="geometry" />
        </mxCell>
        <mxCell id="cLD9-flNQuJHAPPy_8HS-167" value="&lt;span style=&quot;text-align: left;&quot;&gt;item_type&lt;/span&gt;" style="ellipse;whiteSpace=wrap;html=1;" vertex="1" parent="1">
          <mxGeometry x="370" y="640" width="100" height="30" as="geometry" />
        </mxCell>
        <mxCell id="cLD9-flNQuJHAPPy_8HS-168" value="" style="edgeStyle=orthogonalEdgeStyle;rounded=0;orthogonalLoop=1;jettySize=auto;html=1;endArrow=none;startFill=0;" edge="1" parent="1" source="cLD9-flNQuJHAPPy_8HS-169" target="cLD9-flNQuJHAPPy_8HS-164">
          <mxGeometry relative="1" as="geometry" />
        </mxCell>
        <mxCell id="cLD9-flNQuJHAPPy_8HS-169" value="memiliki" style="rhombus;whiteSpace=wrap;html=1;" vertex="1" parent="1">
          <mxGeometry x="674.5" y="635" width="110" height="40" as="geometry" />
        </mxCell>
        <mxCell id="cLD9-flNQuJHAPPy_8HS-170" style="rounded=0;orthogonalLoop=1;jettySize=auto;html=1;exitX=0;exitY=1;exitDx=0;exitDy=0;entryX=1;entryY=0.5;entryDx=0;entryDy=0;endArrow=none;startFill=0;" edge="1" parent="1" source="cLD9-flNQuJHAPPy_8HS-164" target="cLD9-flNQuJHAPPy_8HS-166">
          <mxGeometry relative="1" as="geometry" />
        </mxCell>
        <mxCell id="cLD9-flNQuJHAPPy_8HS-171" value="&lt;font style=&quot;font-size: 40px;&quot;&gt;ERD&lt;/font&gt;" style="text;html=1;align=center;verticalAlign=middle;resizable=0;points=[];autosize=1;strokeColor=none;fillColor=none;" vertex="1" parent="1">
          <mxGeometry x="589.5" y="150" width="110" height="60" as="geometry" />
        </mxCell>
      </root>
    </mxGraphModel>
  </diagram>
</mxfile>
